<svg xmlns="http://www.w3.org/2000/svg" width="1400" height="820" viewBox="0 0 1400 820">
  <defs>
    <pattern id="studs" width="28" height="28" patternUnits="userSpaceOnUse">
      <circle cx="14" cy="14" r="7" fill="#d4d4d4"/>
    </pattern>
  </defs>
  <rect width="1400" height="820" fill="#e8e8e8"/>
  <rect width="1400" height="820" fill="url(#studs)"/>

  <rect width="1400" height="110" fill="#ffd500" stroke="#111" stroke-width="4"/>
  <circle cx="50" cy="35" r="10" fill="#e3000b" stroke="#111" stroke-width="2"/>
  <circle cx="80" cy="35" r="10" fill="#0055bf" stroke="#111" stroke-width="2"/>
  <circle cx="110" cy="35" r="10" fill="#00a651" stroke="#111" stroke-width="2"/>
  <text x="40" y="75" fill="#111" font-family="Arial Black, sans-serif" font-size="34">Observability</text>
  <text x="40" y="98" fill="#333" font-family="Arial, sans-serif" font-size="16" font-weight="700">Live status stream, timeline, and node-level traces</text>
  <rect x="1120" y="35" width="220" height="44" rx="8" fill="#00a651" stroke="#111" stroke-width="3"/>
  <text x="1165" y="64" fill="#fff" font-family="Arial Black, sans-serif" font-size="16">Ï LIVE CONNECTED</text>

  <!-- left timeline -->
  <rect x="40" y="140" width="820" height="640" rx="10" fill="#fff" stroke="#111" stroke-width="4"/>
  <text x="70" y="185" fill="#111" font-family="Arial Black, sans-serif" font-size="24">Live timeline</text>

  <circle cx="90" cy="240" r="10" fill="#0055bf" stroke="#111" stroke-width="3"/>
  <line x1="90" y1="250" x2="90" y2="320" stroke="#111" stroke-width="4"/>
  <rect x="120" y="215" width="700" height="70" rx="8" fill="#fff" stroke="#111" stroke-width="3"/>
  <text x="145" y="245" fill="#666" font-family="Arial Black, sans-serif" font-size="12">RUN.STATUS</text>
  <rect x="145" y="255" width="120" height="22" rx="4" fill="#ffd500" stroke="#111" stroke-width="2"/>
  <text x="165" y="271" fill="#111" font-family="Arial Black, sans-serif" font-size="12">RUNNING</text>

  <circle cx="90" cy="350" r="10" fill="#ffd500" stroke="#111" stroke-width="3"/>
  <line x1="90" y1="360" x2="90" y2="430" stroke="#111" stroke-width="4"/>
  <rect x="120" y="325" width="700" height="70" rx="8" fill="#fff7cc" stroke="#111" stroke-width="3"/>
  <text x="145" y="355" fill="#666" font-family="Arial Black, sans-serif" font-size="12">NODE.STATUS</text>
  <text x="145" y="380" fill="#111" font-family="Arial Black, sans-serif" font-size="18">Node llm-1 · completed</text>

  <circle cx="90" cy="460" r="10" fill="#00a651" stroke="#111" stroke-width="3"/>
  <line x1="90" y1="470" x2="90" y2="540" stroke="#111" stroke-width="4"/>
  <rect x="120" y="435" width="700" height="70" rx="8" fill="#eafff1" stroke="#111" stroke-width="3"/>
  <text x="145" y="465" fill="#666" font-family="Arial Black, sans-serif" font-size="12">NODE.STATUS</text>
  <text x="145" y="490" fill="#111" font-family="Arial Black, sans-serif" font-size="18">Node output-1 · completed</text>

  <circle cx="90" cy="570" r="10" fill="#00a651" stroke="#111" stroke-width="3"/>
  <rect x="120" y="545" width="700" height="70" rx="8" fill="#eafff1" stroke="#111" stroke-width="3"/>
  <text x="145" y="575" fill="#666" font-family="Arial Black, sans-serif" font-size="12">RUN.STATUS</text>
  <rect x="145" y="585" width="140" height="22" rx="4" fill="#00a651" stroke="#111" stroke-width="2"/>
  <text x="165" y="601" fill="#fff" font-family="Arial Black, sans-serif" font-size="12">COMPLETED</text>

  <!-- metrics -->
  <rect x="180" y="660" width="150" height="80" rx="8" fill="#fff" stroke="#111" stroke-width="3"/>
  <text x="200" y="690" fill="#666" font-family="Arial Black, sans-serif" font-size="12">TOKENS</text>
  <text x="200" y="725" fill="#111" font-family="Arial Black, sans-serif" font-size="28">128</text>

  <rect x="350" y="660" width="150" height="80" rx="8" fill="#fff" stroke="#111" stroke-width="3"/>
  <text x="370" y="690" fill="#666" font-family="Arial Black, sans-serif" font-size="12">COST</text>
  <text x="370" y="725" fill="#111" font-family="Arial Black, sans-serif" font-size="28">$0.0003</text>

  <rect x="520" y="660" width="150" height="80" rx="8" fill="#fff" stroke="#111" stroke-width="3"/>
  <text x="540" y="690" fill="#666" font-family="Arial Black, sans-serif" font-size="12">DURATION</text>
  <text x="540" y="725" fill="#111" font-family="Arial Black, sans-serif" font-size="28">842 ms</text>

  <!-- right node runs -->
  <rect x="890" y="140" width="470" height="640" rx="10" fill="#fff" stroke="#111" stroke-width="4"/>
  <text x="920" y="185" fill="#111" font-family="Arial Black, sans-serif" font-size="24">Node runs</text>

  <rect x="920" y="215" width="410" height="80" rx="8" fill="#ffd500" stroke="#111" stroke-width="3"/>
  <text x="945" y="250" fill="#111" font-family="Arial Black, sans-serif" font-size="18">llm-1</text>
  <text x="945" y="275" fill="#333" font-family="Arial, sans-serif" font-size="14" font-weight="700">llm · 64 tokens</text>
  <rect x="1180" y="240" width="130" height="30" rx="6" fill="#00a651" stroke="#111" stroke-width="2"/>
  <text x="1198" y="261" fill="#fff" font-family="Arial Black, sans-serif" font-size="12">COMPLETED</text>

  <rect x="920" y="315" width="410" height="80" rx="8" fill="#111" stroke="#111" stroke-width="3"/>
  <text x="945" y="350" fill="#fff" font-family="Arial Black, sans-serif" font-size="18">output-1</text>
  <text x="945" y="375" fill="#ccc" font-family="Arial, sans-serif" font-size="14" font-weight="700">output · final brick</text>
  <rect x="1180" y="340" width="130" height="30" rx="6" fill="#00a651" stroke="#111" stroke-width="2"/>
  <text x="1198" y="361" fill="#fff" font-family="Arial Black, sans-serif" font-size="12">COMPLETED</text>

  <text x="920" y="450" fill="#111" font-family="Arial Black, sans-serif" font-size="18">Final output</text>
  <rect x="920" y="470" width="410" height="260" rx="8" fill="#111" stroke="#111" stroke-width="3"/>
  <text x="945" y="520" fill="#ffd500" font-family="Menlo, monospace" font-size="16">{</text>
  <text x="965" y="555" fill="#7CFFB2" font-family="Menlo, monospace" font-size="16">"result": "Strong</text>
  <text x="965" y="585" fill="#7CFFB2" font-family="Menlo, monospace" font-size="16">Python + FastAPI</text>
  <text x="965" y="615" fill="#7CFFB2" font-family="Menlo, monospace" font-size="16">match. Score: 86"</text>
  <text x="945" y="655" fill="#ffd500" font-family="Menlo, monospace" font-size="16">}</text>
</svg>
